<?xml version="1.0" encoding="UTF-8"?>
<svg id="Layer_2" data-name="Layer 2" xmlns="http://www.w3.org/2000/svg" version="1.1" viewBox="0 0 453.5 300.5">
  <defs>
    <style>
      .cls-1, .cls-2, .cls-3, .cls-4, .cls-5, .cls-6 {
        stroke-width: 0px;
      }

      .cls-1, .cls-3 {
        fill: #5db8ae;
      }

      .cls-1, .cls-4, .cls-6 {
        fill-rule: evenodd;
      }

      .cls-2 {
        fill: #2e2e2e;
      }

      .cls-4, .cls-5 {
        fill: #b62948;
      }

      .cls-6 {
        fill: #f2b6c0;
      }
    </style>
  </defs>
  <path class="cls-1" d="M248.7,135.8c3.4,20.2,13.6,43.2,22.9,51.1,30.7,3,52.3-96.5,46.3-137.2-23.6,23.6-49.7,30.2-62.9,40.9-5.6,4.5-8.9,10.2-9,19.2.1,8.4,1.3,17.6,2.7,26Z"/>
  <path class="cls-1" d="M136.4,52.2c-2.2,22.2,11.1,134.4,46,136,14.2-15.9,18.7-33.5,22.2-50.1,1.8-7.3,2.1-12,2.4-18,.9-16-6.7-25.1-17.6-32.3-16-10.5-38.6-20.6-53-35.6Z"/>
  <path class="cls-1" d="M194.4,186c15.7-19,16-26.5,25.3-47.5,3.4-7.4,12.6-5.3,14.8.6,8.9,21.4,13.6,33.3,26.8,46.8,2.2,3.4-2.5,3.2-6.3.5-13-8-24.8-32.1-27.8-40.8-5.8,12-13.6,31.2-28.2,41.8-7.6,4.2-6.2.7-4.6-1.4Z"/>
  <path class="cls-4" d="M225.7,59.1c7.6,0,13.8-6.9,13.8-15.3s-6.2-15.3-13.8-15.3-13.8,6.9-13.8,15.3c.1,8.4,6.3,15.3,13.8,15.3Z"/>
  <g>
    <path class="cls-5" d="M16.7,222.3c1,1.8,2.1,4,3.4,6.6s2.6,5.5,4,8.5c1.4,3.1,2.8,6.2,4.1,9.4,1.4,3.2,2.6,6.2,3.8,9,1.2-2.8,2.5-5.8,3.8-9,1.4-3.2,2.7-6.3,4.1-9.4,1.4-3.1,2.7-5.9,4-8.5s2.4-4.8,3.4-6.6h11.6c.5,3.7,1,7.9,1.5,12.6.5,4.6.9,9.5,1.2,14.5.4,5,.7,10,1,15.1.3,5,.6,9.8.8,14.2h-12.5c-.2-5.5-.4-11.4-.7-17.9s-.7-13-1.2-19.5c-1,2.3-2.1,4.8-3.3,7.6s-2.4,5.5-3.5,8.3c-1.2,2.8-2.3,5.4-3.4,7.9-1.1,2.5-2,4.7-2.8,6.5h-8.9c-.8-1.8-1.7-3.9-2.8-6.5-1.1-2.5-2.2-5.2-3.4-7.9-1.2-2.8-2.3-5.5-3.5-8.3s-2.3-5.3-3.3-7.6c-.5,6.6-.9,13.1-1.2,19.5-.3,6.5-.5,12.4-.7,17.9H.1c.2-4.4.5-9.2.8-14.2s.6-10.1,1-15.1.8-9.8,1.2-14.5c.5-4.6,1-8.8,1.5-12.6h12.1Z"/>
    <path class="cls-5" d="M71.9,257.6c0-3.8.6-7.1,1.7-10,1.2-2.8,2.7-5.2,4.6-7.1,1.9-1.9,4.1-3.3,6.5-4.3,2.5-1,5-1.5,7.6-1.5,6.1,0,10.9,1.9,14.4,5.6,3.5,3.7,5.3,9.2,5.3,16.4s0,1.5,0,2.3,0,1.6-.2,2.2h-27.4c.3,2.5,1.4,4.5,3.5,5.9,2.1,1.5,4.8,2.2,8.3,2.2s4.4-.2,6.5-.6,3.9-.9,5.2-1.5l1.6,9.8c-.7.3-1.5.7-2.6,1s-2.3.6-3.6.9c-1.3.2-2.8.4-4.3.6s-3,.2-4.6.2c-3.9,0-7.2-.6-10-1.7s-5.2-2.7-7.1-4.7-3.3-4.3-4.1-7c-.8-2.6-1.2-5.6-1.2-8.7h0ZM100.3,252.9c0-1-.2-2-.5-3s-.8-1.8-1.4-2.6-1.4-1.4-2.4-1.9c-.9-.5-2.1-.7-3.5-.7s-2.5.2-3.5.7-1.8,1.1-2.4,1.8c-.7.8-1.2,1.6-1.5,2.6-.4,1-.6,2-.8,3h16Z"/>
    <path class="cls-5" d="M121,225.2l12.1-2v12.6h14.6v10.1h-14.6v15.1c0,2.5.4,4.6,1.3,6.1.9,1.5,2.7,2.3,5.4,2.3s2.6-.1,4-.4c1.4-.2,2.6-.6,3.8-1l1.7,9.4c-1.5.6-3.1,1.1-4.9,1.5-1.8.4-4,.7-6.6.7s-6-.4-8.2-1.3-3.9-2.1-5.2-3.7c-1.3-1.6-2.2-3.5-2.7-5.8s-.8-4.8-.8-7.6v-36h0Z"/>
    <path class="cls-5" d="M173.9,270.2c1.2,0,2.3,0,3.4-.1,1.1-.1,2-.1,2.6-.2v-9.2c-.5-.1-1.2-.2-2.2-.3-1-.1-1.9-.2-2.7-.2s-2.2.1-3.2.2-1.9.4-2.6.8c-.8.4-1.4.9-1.8,1.5-.4.7-.7,1.5-.7,2.4,0,1.9.6,3.2,1.9,3.9,1.3.8,3.1,1.2,5.3,1.2h0ZM172.9,234.7c3.6,0,6.6.4,8.9,1.2,2.4.8,4.3,2,5.7,3.5s2.5,3.4,3.1,5.5c.6,2.2.9,4.6.9,7.2v25.2c-1.7.4-4.1.8-7.2,1.3s-6.8.8-11.2.8-5.3-.2-7.5-.7c-2.3-.5-4.2-1.3-5.8-2.4s-2.9-2.6-3.7-4.4c-.9-1.8-1.3-4-1.3-6.6s.5-4.6,1.5-6.3c1-1.7,2.3-3.1,4-4.2,1.7-1,3.6-1.8,5.8-2.2,2.2-.5,4.4-.7,6.8-.7s3,.1,4.2.2c1.2.1,2.2.3,3,.5v-1.1c0-2.1-.6-3.7-1.9-5-1.2-1.2-3.4-1.9-6.5-1.9s-4.1.1-6.1.4c-2,.3-3.7.7-5.2,1.3l-1.5-9.8c.7-.2,1.6-.4,2.6-.7,1.1-.2,2.2-.5,3.5-.7,1.2-.2,2.6-.4,3.9-.5,1.2.2,2.6.1,4,.1Z"/>
  </g>
  <g>
    <polygon class="cls-3" points="237.4 222.3 250 222.3 250 278.6 237.4 278.6 237.4 254.7 216 254.7 216 278.6 203.3 278.6 203.3 222.3 216 222.3 216 243.8 237.4 243.8 237.4 222.3"/>
    <path class="cls-3" d="M260.2,257.6c0-3.8.6-7.1,1.7-10,1.2-2.8,2.7-5.2,4.6-7.1,1.9-1.9,4.1-3.3,6.5-4.3,2.5-1,5-1.5,7.6-1.5,6.1,0,10.9,1.9,14.4,5.6,3.5,3.7,5.3,9.2,5.3,16.4s0,1.5-.1,2.3-.1,1.6-.2,2.2h-27.5c.3,2.5,1.4,4.5,3.5,5.9,2.1,1.5,4.8,2.2,8.3,2.2s4.4-.2,6.5-.6,3.9-.9,5.2-1.5l1.6,9.8c-.7.3-1.5.7-2.6,1s-2.3.6-3.6.9c-1.3.2-2.8.4-4.3.6s-3,.2-4.6.2c-3.9,0-7.2-.6-10-1.7s-5.2-2.7-7.1-4.7-3.3-4.3-4.1-7c-.6-2.6-1.1-5.6-1.1-8.7h0ZM288.7,252.9c-.1-1-.2-2-.5-3s-.8-1.8-1.4-2.6-1.4-1.4-2.4-1.9-2.1-.7-3.5-.7-2.5.2-3.5.7-1.8,1.1-2.4,1.8c-.7.8-1.2,1.6-1.5,2.6-.4,1-.6,2-.8,3h16Z"/>
    <path class="cls-3" d="M326.1,270.2c1.2,0,2.3,0,3.4-.1s2-.1,2.6-.2v-9.2c-.5-.1-1.2-.2-2.2-.3-1-.1-1.9-.2-2.7-.2s-2.2.1-3.2.2-1.9.4-2.6.8c-.8.4-1.4.9-1.8,1.5-.4.7-.7,1.5-.7,2.4,0,1.9.6,3.2,1.9,3.9,1.3.8,3.1,1.2,5.3,1.2h0ZM325.1,234.7c3.6,0,6.6.4,9,1.2s4.3,2,5.7,3.5c1.4,1.5,2.5,3.4,3.1,5.5.6,2.2.9,4.6.9,7.2v25.2c-1.7.4-4.1.8-7.2,1.3s-6.8.8-11.2.8-5.3-.2-7.5-.7c-2.3-.5-4.2-1.3-5.8-2.4-1.6-1.1-2.9-2.6-3.7-4.4-.9-1.8-1.3-4-1.3-6.6s.5-4.6,1.5-6.3c1-1.7,2.3-3.1,4-4.2,1.7-1,3.6-1.8,5.8-2.2,2.2-.5,4.4-.7,6.8-.7s3,.1,4.2.2c1.2.1,2.2.3,3,.5v-1.1c0-2.1-.6-3.7-1.9-5-1.2-1.2-3.4-1.9-6.5-1.9s-4.1.1-6.1.4c-2,.3-3.7.7-5.2,1.3l-1.5-9.8c.7-.2,1.6-.4,2.6-.7,1.1-.2,2.2-.5,3.5-.7,1.2-.2,2.6-.4,3.9-.5,1.1.2,2.5.1,3.9.1Z"/>
    <path class="cls-3" d="M371.8,279.5c-3.5-.1-6.4-.4-8.6-1.1s-3.9-1.7-5.2-3c-1.3-1.3-2.1-2.8-2.6-4.6-.5-1.8-.7-3.9-.7-6.1v-47.1l12.1-2v46.6c0,1.1.1,2.1.2,2.9.2.9.5,1.6.9,2.2.5.6,1.1,1.1,2,1.5s2,.6,3.5.7l-1.6,10Z"/>
    <path class="cls-3" d="M380.1,225.2l12.1-2v12.6h14.6v10.1h-14.6v15.1c0,2.5.4,4.6,1.3,6.1s2.7,2.3,5.4,2.3,2.6-.1,4-.4c1.4-.2,2.6-.6,3.8-1l1.7,9.4c-1.5.6-3.1,1.1-4.9,1.5s-4,.7-6.6.7-6-.4-8.2-1.3-3.9-2.1-5.2-3.7c-1.3-1.6-2.2-3.5-2.7-5.8s-.8-4.8-.8-7.6v-36h.1Z"/>
    <path class="cls-3" d="M416.6,278.6v-61.2l12.1-2v20.6c.8-.3,1.9-.5,3.1-.8,1.3-.2,2.5-.4,3.7-.4,3.5,0,6.4.5,8.7,1.4,2.3.9,4.1,2.3,5.5,4s2.4,3.8,2.9,6.2c.6,2.4.9,5,.9,8v24.2h-12.1v-22.7c0-3.9-.5-6.7-1.5-8.3s-2.9-2.4-5.6-2.4-2.1.1-3,.3c-1,.2-1.8.4-2.6.6v32.5h-12.1Z"/>
  </g>
  <path class="cls-6" d="M174.8,22.3c-1.3-1-3-1.8-5-1.8-4.3,0-7.3,3.1-7.1,7.7-.8.1-1.5,0-2.3-.1-1.7-.2-1,2,.1,2.3.4.1,1.7.1,2.7,0,.5,1.5,1.1,2.9,1.8,4.3-.6.2-1.2.3-2.1.5-1.7.3-.5,2.3.6,2.2.4,0,1.7-.4,2.6-.9,1.5,2.2,3.4,4.1,5.5,5.7-.1.7-.4,1.3-1,2.1-1,1.4.8,2.1,1.6,1.3.3-.3.9-1.3,1.3-2.2,3.1,1.9,6.5,3.2,9.8,3.6.1.8.1,1.5-.1,2.4-.2,1.7,2,1,2.3,0,.1-.3.1-1.2.1-2.1,1.2,0,2.3-.2,3.2-.5.2.6.4,1.3.5,2,.3,1.7,2.2.6,2.2-.5s-.3-1.6-.7-2.5c1.7-1.3,2.7-3.3,2.9-6.4-.1-3.4-2.5-6.6-6.7-6.7-6.5-.4-7.4-3.8-10.3-8.1.5-.9,1.1-2.1,1.1-2.6.1-1.6-2.1-2.2-2.6-.6-.1.4-.2.7-.4,1h0ZM166.5,28.9c-.8-2,1.1-5.4,5.2-3.8,3.5,2,3.6,9.7,15.4,10.9,4.7.7,3.6,7.9-1.7,7.4-12.7-.5-18.4-11.8-18.9-14.5Z"/>
  <path class="cls-6" d="M193.5,25c-3.5-.1-6.4,2.5-6.6,6-.1,3.4,2.6,6.3,6,6.5,3.5,0,6.4-2.5,6.6-6,.2-3.4-2.5-6.3-6-6.5h0ZM193.3,28.4c1.6.1,2.8,1.4,2.7,2.9s-1.4,2.8-3,2.7-2.8-1.4-2.7-2.9c0-1.5,1.5-2.7,3-2.7Z"/>
  <path class="cls-6" d="M199.5,43.3c-2.4,0-4.4,1.7-4.5,4.1-.1,2.4,1.8,4.4,4.2,4.5s4.4-1.7,4.5-4.1-1.8-4.4-4.2-4.5h0ZM199.4,45.6c1.1,0,2,1,2,2.1s-1,2-2.2,2-2-1-2-2.1c.1-1.2,1-2.1,2.2-2Z"/>
  <path class="cls-6" d="M287.7,31.4c3.1,2,4.4,4.7,4.1,6.2-.6,3.7-6.2,3.2-8.4,6.4-.8,1.1-.1,3.8-.9,3.5-1.9-7.6,7.2-6.8,7.3-9.9,0-1.4-1.4-2.9-3-4-1.2,1.6-3.3,2.2-4.5,1.8-3.9-1.3-6.2-4.8-14.1-5.5-5,0-5.9-5.3-3.9-7.7,3.1-3.3,9.6-2.5,13.6-1.4,7.2,2.6,10.7,6.3,9.9,9.8,0,.2-.1.5-.1.8h0ZM266.8,24.1c-1.6,2,.1,3.1,2,3,7.1.8,9.6,3.1,13.2,5,1.5.4,3.2-1.2,2.8-3-.6-1.7-2.6-3.6-8.5-5.7-3.6-.8-7.4-1.5-9.5.7Z"/>
  <path class="cls-6" d="M253,45.1c-2.7,0-5.5-1.7-6-3.2-1.4-3.2,1.6-5.1,1.7-7.9,0-.6-.1-1.2-.7-1.9-.4-.5-1.2-1.8-.4-1.6,5.8,4.3-.7,7.3,1,10.2.5,1.1,2.3,1.9,4,2.1.2-1.7,1.2-3.2,2.1-3.6,3.4-1.3,7-.8,12.9-4.7,3.4-2.9,6.8.5,6.8,3.3-.2,4-4.4,7.6-8.4,9.1-6.5,2.3-10.9,1.6-12.4-.7-.3-.3-.5-.7-.6-1.1h0ZM271.3,38.3c0-2.3-1.8-2.1-3.1-.9-5.4,3.5-7.9,3.3-11.6,3.9-1.3.5-1.5,2.6-.3,3.7,1.3.8,3.9,1,9.1-.9,3.7-1.6,5.6-3.5,5.9-5.8Z"/>
  <path class="cls-6" d="M239.7,94.9c-1.7,1.5-3.6,3.4-4.4,5.2-.4.8.7,2.2.9,3,.3,1.1.2,1.2.8,1.6.8.6,1.9.8,3.6,1.5,2.2.6,1.1,2.2-1.2,2.2s-1.9,0-2.8.7c-1.2.9-2.3,3.2-2.4,4.5-.2,2.7,4.9,9.7,3,9.9-2.3,1-5.3-6.3-8-6.5-1.9,0-2.9-.5-4.3.3-1,.6-2.9,5.3-3.8,5.3-1.2,0-.9-2.5-.6-4.2.2-1.1.7-2.1.5-2.8-.4-1.3-1.8-2.7-2.8-2.8-1.9-.2-3.9,3.3-5.1,2.5-1.6-1.4.2-2.9,1.5-4,.7-.5,1.6-1.1,2.1-2.1.3-.8.3-2.8-.4-3.3-1.6-1.1-4.9,0-5.8-2-.4-2.6,3.9-.3,5.7-2.4.3-.3,1.1-2,1.2-2.6.4-1.3-.4-3.1-1.8-4.7-.2-.2-.8-1.4-1-1.8-.2-.6.4-1.3,1-1.1,2.1,1.2,2.7,2.9,4.3,3.6.5.2,1.1.3,1.9.3.8,0,1.8-.8,2.7-1.7,1.2-1.3.8-6.6,1.8-6.9,2.9-.6,0,6.9,3.7,8.5.7.3,1.7,1.3,2.6,1.1,2.3-.6,4.8-2.9,6-3.6,1.5-.9,3.5.2,1.1,2.3h0ZM226.6,100.5c-4.6,1.2-2.2,8.5,1.8,6.9,1-.4,1.7-2.3,1.4-3.7-.5-1.8-1.6-3.4-3.2-3.2h0ZM226.8,102.4c-2.1.6-1,3.8.8,3.1.5-.2.8-1,.6-1.7-.2-.7-.7-1.4-1.4-1.4h0ZM225,97.6c-4.5.6-5.2,3-5.4,6.7-.5,6.8,4.1,11.2,10,8.7,2.5-1.1,4.7-3.9,3.8-7.4-1.2-4.7-4.4-8.5-8.4-8Z"/>
  <path class="cls-4" d="M305.8,37.9c-3.6-13.2-12.8-27.7-31.5-25.4-9.8,1.1-24.2,6.9-35.5,9.8-9.9,2.6-11.1,3.1-20.8-.6-11.6-4.4-27-9.3-39.7-9.1-1.7,0-3.3.1-4.8.3v.2c-11.6,1.4-21.2,9.1-25.9,27.4,25.7,15,52,23.6,79.3,23.3,25.7-.3,52.6-9,78.9-25.9h0ZM145.9,15.1c6.8-9.8,17.3-14.7,30.8-14.5,16.6.3,30.9,10.3,43.4,16.3,3.8,2.1,6.3,3,8.8,3s5-1.3,9.5-3.2c13.3-5.2,25.2-13.9,38.8-16,21.6-2,37,15.8,40,30.9,8.9-5.5,15.6-5,12.8-.7-36.9,35.1-73,49.3-104.9,50.1-34.2.9-74.5-22-92.4-40.9-4.6-4.8-8.3-9.3-8.9-12.2,1.7-3.5,9.6,2,12.8,4.6,2.4-6.9,5.2-12.4,9.3-17.4Z"/>
  <g>
    <polygon class="cls-2" points="9.3 287.8 9.3 300.7 7.9 300.7 7.9 294.7 1.8 294.7 1.8 300.7 .5 300.7 .5 287.8 1.8 287.8 1.8 293.5 7.9 293.5 7.9 287.8 9.3 287.8"/>
    <polygon class="cls-2" points="14.2 289 14.2 293.5 19.8 293.5 19.8 294.8 14.2 294.8 14.2 299.5 20.7 299.5 20.7 300.7 12.8 300.7 12.8 287.8 20.7 287.8 20.7 289 14.2 289"/>
    <path class="cls-2" d="M30.4,297.6h-5.5l-1.1,3.1h-1.4l4.7-13h1.1l4.7,13h-1.4l-1.1-3.1h0ZM30,296.4l-2.4-6.8-2.3,6.8h4.7Z"/>
    <polygon class="cls-2" points="35.1 287.8 36.4 287.8 36.4 299.5 42.9 299.5 42.9 300.7 35.1 300.7 35.1 287.8"/>
    <polygon class="cls-2" points="53 289 49.3 289 49.3 300.7 47.9 300.7 47.9 289 44.2 289 44.2 287.8 53 287.8 53 289"/>
    <polygon class="cls-2" points="64 287.8 64 300.7 62.6 300.7 62.6 294.7 56.6 294.7 56.6 300.7 55.2 300.7 55.2 287.8 56.6 287.8 56.6 293.5 62.6 293.5 62.6 287.8 64 287.8"/>
    <polygon class="cls-2" points="71.4 295.3 71.4 300.7 70.1 300.7 70.1 295.3 66.2 287.8 67.7 287.8 70.7 294 73.8 287.8 75.3 287.8 71.4 295.3"/>
    <polygon class="cls-2" points="94.9 287.8 91.6 300.7 90.4 300.7 87.5 289.5 84.7 300.7 83.5 300.7 80.2 287.8 81.5 287.8 84.2 298.5 86.7 287.8 88.5 287.8 91.1 298.5 93.6 287.8 94.9 287.8"/>
    <polygon class="cls-2" points="98.5 289 98.5 293.5 104 293.5 104 294.8 98.5 294.8 98.5 299.5 105 299.5 105 300.7 97.1 300.7 97.1 287.8 105 287.8 105 289 98.5 289"/>
    <rect class="cls-2" x="108.1" y="287.8" width="1.4" height="13"/>
    <path class="cls-2" d="M117.4,300.9c-1.4,0-2.5-.4-3.3-1.2-.8-.8-1.2-2.1-1.2-3.8v-3.4c0-1.7.4-3,1.2-3.8.8-.8,1.9-1.2,3.3-1.2s1.7.2,2.3.5c.7.3,1.2.8,1.5,1.4.4.6.5,1.3.5,2.1h0c0,.1-1.4.1-1.4.1h0c0-.9-.3-1.6-.8-2.1s-1.3-.7-2.2-.7-1.8.3-2.4.9c-.5.6-.8,1.6-.8,2.9v3.4c0,2.4,1.1,3.6,3.2,3.6s1.7-.3,2.3-.8c.5-.5.8-1.4.8-2.6v-1h-3.1v-1.2h4.5v1.9c0,1.7-.4,2.9-1.2,3.7-.7.9-1.8,1.3-3.2,1.3Z"/>
    <polygon class="cls-2" points="134 287.8 134 300.7 132.6 300.7 132.6 294.7 126.5 294.7 126.5 300.7 125.2 300.7 125.2 287.8 126.5 287.8 126.5 293.5 132.6 293.5 132.6 287.8 134 287.8"/>
    <polygon class="cls-2" points="145 289 141.3 289 141.3 300.7 139.9 300.7 139.9 289 136.2 289 136.2 287.8 145 287.8 145 289"/>
    <path class="cls-2" d="M157.9,297.6h-5.5l-1.1,3.1h-1.4l4.7-13h1.1l4.7,13h-1.4l-1.1-3.1h0ZM157.5,296.4l-2.4-6.8-2.3,6.8h4.7Z"/>
    <polygon class="cls-2" points="172.1 287.8 172.1 300.7 170.7 300.7 164 290.3 164 300.7 162.6 300.7 162.6 287.8 164 287.8 170.7 298.2 170.7 287.8 172.1 287.8"/>
    <path class="cls-2" d="M175.7,287.8h4.4c1.4,0,2.5.4,3.3,1.2.8.8,1.2,2.1,1.2,3.8v3c0,1.7-.4,3-1.2,3.8s-1.9,1.2-3.3,1.2h-4.4v-13h0ZM180.1,299.5c2.1,0,3.1-1.2,3.1-3.6v-3.1c0-1.3-.3-2.3-.8-2.9s-1.3-.9-2.3-.9h-3.1v10.5h3.1Z"/>
    <polygon class="cls-2" points="200.8 287.8 200.8 300.7 199.4 300.7 199.4 294.7 193.3 294.7 193.3 300.7 192 300.7 192 287.8 193.3 287.8 193.3 293.5 199.4 293.5 199.4 287.8 200.8 287.8"/>
    <polygon class="cls-2" points="205.7 289 205.7 293.5 211.3 293.5 211.3 294.8 205.7 294.8 205.7 299.5 212.2 299.5 212.2 300.7 204.3 300.7 204.3 287.8 212.2 287.8 212.2 289 205.7 289"/>
    <path class="cls-2" d="M221.8,297.6h-5.5l-1.1,3.1h-1.4l4.7-13h1.1l4.7,13h-1.4l-1.1-3.1h0ZM221.4,296.4l-2.4-6.8-2.3,6.8h4.7Z"/>
    <polygon class="cls-2" points="226.6 287.8 227.9 287.8 227.9 299.5 234.4 299.5 234.4 300.7 226.6 300.7 226.6 287.8"/>
    <polygon class="cls-2" points="244.5 289 240.8 289 240.8 300.7 239.4 300.7 239.4 289 235.7 289 235.7 287.8 244.5 287.8 244.5 289"/>
    <polygon class="cls-2" points="255.5 287.8 255.5 300.7 254.1 300.7 254.1 294.7 248 294.7 248 300.7 246.7 300.7 246.7 287.8 248 287.8 248 293.5 254.1 293.5 254.1 287.8 255.5 287.8"/>
    <polygon class="cls-2" points="262.9 295.3 262.9 300.7 261.6 300.7 261.6 295.3 257.7 287.8 259.2 287.8 262.2 294 265.3 287.8 266.8 287.8 262.9 295.3"/>
    <polygon class="cls-2" points="280.5 289 276.8 289 276.8 300.7 275.4 300.7 275.4 289 271.7 289 271.7 287.8 280.5 287.8 280.5 289"/>
    <polygon class="cls-2" points="284 289 284 293.5 289.6 293.5 289.6 294.8 284 294.8 284 299.5 290.5 299.5 290.5 300.7 282.7 300.7 282.7 287.8 290.5 287.8 290.5 289 284 289"/>
    <polygon class="cls-2" points="294.9 289 294.9 293.5 300.4 293.5 300.4 294.8 294.9 294.8 294.9 299.5 301.4 299.5 301.4 300.7 293.5 300.7 293.5 287.8 301.4 287.8 301.4 289 294.9 289"/>
    <polygon class="cls-2" points="311.7 289 308 289 308 300.7 306.7 300.7 306.7 289 303 289 303 287.8 311.7 287.8 311.7 289"/>
    <polygon class="cls-2" points="322.8 287.8 322.8 300.7 321.4 300.7 321.4 294.7 315.3 294.7 315.3 300.7 314 300.7 314 287.8 315.3 287.8 315.3 293.5 321.4 293.5 321.4 287.8 322.8 287.8"/>
    <polygon class="cls-2" points="331.8 289 331.8 293.6 337.3 293.6 337.3 294.8 331.8 294.8 331.8 300.7 330.4 300.7 330.4 287.8 338.3 287.8 338.3 289 331.8 289"/>
    <path class="cls-2" d="M345.3,300.9c-1.4,0-2.5-.4-3.3-1.2-.8-.8-1.2-2.1-1.2-3.8v-3.4c0-1.7.4-3,1.2-3.8.8-.8,1.9-1.2,3.3-1.2s2.5.4,3.3,1.2c.8.8,1.2,2.1,1.2,3.8v3.4c0,1.7-.4,3-1.2,3.8-.8.8-1.9,1.2-3.3,1.2h0ZM345.3,299.6c2.1,0,3.1-1.2,3.1-3.6v-3.4c0-2.5-1-3.8-3.1-3.8s-1.8.3-2.3.9-.8,1.6-.8,2.9v3.4c0,1.3.3,2.2.8,2.8.5.5,1.3.8,2.3.8Z"/>
    <path class="cls-2" d="M357.6,295h-3.1v5.7h-1.4v-13h4.8c1.2,0,2.2.3,2.9.9.7.6,1,1.5,1,2.7s-.2,1.7-.7,2.3c-.5.6-1.2,1-2,1.2l3.1,5.8h-1.6l-3-5.6h0ZM354.5,293.9h3.3c.8,0,1.5-.2,2-.6s.7-1,.7-1.8-.2-1.4-.7-1.8-1.1-.6-2-.6h-3.3v4.8Z"/>
    <path class="cls-2" d="M373.3,300.9c-1.4,0-2.5-.4-3.3-1.2-.8-.8-1.2-2.1-1.2-3.8v-3.4c0-1.7.4-3,1.2-3.8.8-.8,1.9-1.2,3.3-1.2s1.7.2,2.3.5c.7.3,1.2.8,1.6,1.4s.5,1.3.5,2.1h0c0,.1-1.4.1-1.4.1h0c0-.9-.3-1.6-.8-2.1s-1.3-.7-2.2-.7-1.8.3-2.4.9c-.5.6-.8,1.6-.8,2.9v3.4c0,2.4,1.1,3.6,3.2,3.6s1.7-.2,2.2-.7.8-1.1.8-2h0c0-.1,1.3-.1,1.3-.1h0c0,1.3-.4,2.3-1.2,3-.7.7-1.8,1.1-3.1,1.1Z"/>
    <polygon class="cls-2" points="389.8 287.8 389.8 300.7 388.5 300.7 388.5 294.7 382.4 294.7 382.4 300.7 381 300.7 381 287.8 382.4 287.8 382.4 293.5 388.5 293.5 388.5 287.8 389.8 287.8"/>
    <rect class="cls-2" x="393.5" y="287.8" width="1.4" height="13"/>
    <polygon class="cls-2" points="398.6 287.8 400 287.8 400 299.5 406.5 299.5 406.5 300.7 398.6 300.7 398.6 287.8"/>
    <path class="cls-2" d="M409.1,287.8h4.4c1.4,0,2.5.4,3.3,1.2.8.8,1.2,2.1,1.2,3.8v3c0,1.7-.4,3-1.2,3.8-.8.8-1.9,1.2-3.3,1.2h-4.4v-13h0ZM413.6,299.5c2.1,0,3.1-1.2,3.1-3.6v-3.1c0-1.3-.3-2.3-.8-2.9s-1.3-.9-2.3-.9h-3.1v10.5h3.1Z"/>
    <path class="cls-2" d="M425.8,295h-3.1v5.7h-1.4v-13h4.8c1.2,0,2.2.3,2.9.9.7.6,1,1.5,1,2.7s-.2,1.7-.7,2.3c-.5.6-1.2,1-2,1.2l3.1,5.8h-1.6l-3-5.6h0ZM422.7,293.9h3.3c.8,0,1.5-.2,2-.6s.7-1,.7-1.8-.2-1.4-.7-1.8-1.1-.6-2-.6h-3.3v4.8Z"/>
    <polygon class="cls-2" points="434.5 289 434.5 293.5 440.1 293.5 440.1 294.8 434.5 294.8 434.5 299.5 441 299.5 441 300.7 433.2 300.7 433.2 287.8 441 287.8 441 289 434.5 289"/>
    <polygon class="cls-2" points="453.5 287.8 453.5 300.7 452.1 300.7 445.4 290.3 445.4 300.7 444 300.7 444 287.8 445.4 287.8 452.1 298.2 452.1 287.8 453.5 287.8"/>
  </g>
</svg>